# xmcd
#
# Track frame offsets: 
#        150
#        16105
#        31559
#        44182
#        59329
#        73242
#        83641
#        95526
#        111523
#        125298
#        138172
#        155549
#
# Disc length: 2258 seconds
#
# Revision: 0
# Processed by: cddbd v1.5.2PL0 Copyright (c) Steve Scherf et al.
# Submitted via: ExactAudioCopy v0.99pb4
#
DISCID=9d08d00c
DTITLE=Mickey Gilley - She Reminded Me Of You
DYEAR=1900
DGENRE=Country
TTITLE0=She Reminded Me Of You
TTITLE1=You've Still Got a Way With My Heart
TTITLE2=Solitary Man
TTITLE3=Chasing Rainbows
TTITLE4=Me and the Blues
TTITLE5=There! I've Said It Again
TTITLE6=Justify
TTITLE7=I'm Your Puppet
TTITLE8=Baby I Feel For You
TTITLE9=Easy Climb
TTITLE10=It's Killing Me to Watch Love Die
TTITLE11=Couldn't Love Have Picked a Better Place to Die
EXTD=
EXTT0=
EXTT1=
EXTT2=
EXTT3=
EXTT4=
EXTT5=
EXTT6=
EXTT7=
EXTT8=
EXTT9=
EXTT10=
EXTT11=
PLAYORDER=
